<svg id="Layer_1" data-name="Layer 1" xmlns="http://www.w3.org/2000/svg" viewBox="0 0 855.73 128.78"><defs><style>.cls-1{fill:#fff;}.cls-2{fill:#c8d6e5;}.cls-3{fill:#8395a7;}.cls-4,.cls-5{fill:#222f3e;}.cls-5{font-size:30.21px;font-family:KalligArb-Regular, Kalligraaf Arabic;}</style></defs><path class="cls-1" d="M169.75,156.35H151.28l-30-88.44h17.94l21.31,69.79,21.31-69.79h17.93Z" transform="translate(-121.27 -35.23)"/><path class="cls-1" d="M243.09,158q-19,0-29.65-11.64t-10.66-32.58q0-21.67,10.21-34.1T240.61,67.2q15.79,0,25.13,10.21T275.06,110a69.6,69.6,0,0,1-.53,8.52h-55q3.36,24.87,25.39,24.86,11.89,0,19.89-6.74l8.17,11Q262.63,157.94,243.09,158Zm16-52.21q0-24-18.83-24a17.54,17.54,0,0,0-13.67,5.95q-5.33,6-7.1,18Z" transform="translate(-121.27 -35.23)"/><path class="cls-1" d="M322.83,158q-19,0-29.66-11.64t-10.65-32.58q0-21.67,10.21-34.1T320.34,67.2q15.81,0,25.13,10.21T354.79,110a67.67,67.67,0,0,1-.53,8.52H299.21q3.38,24.87,25.39,24.86,11.89,0,19.89-6.74l8.17,11Q342.37,157.94,322.83,158Zm16-52.21q0-24-18.82-24a17.55,17.55,0,0,0-13.68,5.95q-5.32,6-7.1,18Z" transform="translate(-121.27 -35.23)"/><path class="cls-1" d="M410.91,158q-22.91,0-35.34-15t-12.43-42.89q0-28.77,12.78-44.66T412,39.5a47.27,47.27,0,0,1,16.88,2.84,58.07,58.07,0,0,1,15.27,9l-8.35,13.68a37.37,37.37,0,0,0-24-8.7q-14.57,0-22.82,11.45t-8.26,31.35q0,19.89,8.26,31t23.53,11.1a39.79,39.79,0,0,0,25-8.7l8.17,13.32Q432.56,157.95,410.91,158Z" transform="translate(-121.27 -35.23)"/><path class="cls-1" d="M486,158q-30.37,0-30.55-37.65V67.91H472V120.3Q472,143,488.34,143q17,0,17.76-14l-.18-61.09h16.34v88.44H505.92v-8.53Q497.4,157.95,486,158Z" transform="translate(-121.27 -35.23)"/><path class="cls-1" d="M553.33,156.35H536.82V35.23h16.51Z" transform="translate(-121.27 -35.23)"/><path class="cls-1" d="M634.13,156.35H613q-21.68-.18-30.72-7.82-16.87-13.49-17-36,0-22.91,15.45-36.58a35.82,35.82,0,0,1,24.15-9.06,46.9,46.9,0,0,1,29.3,10Zm-16.34-16.7v-54a29.72,29.72,0,0,0-13.67-3.55,18.24,18.24,0,0,0-14.21,6.39,34.67,34.67,0,0,0-8,22.91q0,28.06,29.13,28.23Z" transform="translate(-121.27 -35.23)"/><path class="cls-1" d="M692.73,156.35h-5.14q-35-.18-35-36V81.76h-9.94V67.91h9.94V35.23h16.34V67.91h16.69V81.76H668.94v37.65q0,22.2,19.71,22.2h4.08Z" transform="translate(-121.27 -35.23)"/><path class="cls-1" d="M732.34,158q-17.76,0-27.08-11.81T695.93,112q0-21.66,9.5-33.21T732.34,67.2q17.76,0,27.08,11.63t9.32,33.65q0,22-9.5,33.75T732.34,158Zm.18-14.74q19.17,0,19.53-29.48,0-15.27-5-23.53a16,16,0,0,0-14.56-8.26q-19,0-19.54,31.61Q713,142.5,732.52,143.21Z" transform="translate(-121.27 -35.23)"/><path class="cls-1" d="M796.27,156.35H779.75V67.91H794V83.18q9.76-16,28.24-16V83.72q-13.68,0-19.8,7.1t-6.13,21.66Z" transform="translate(-121.27 -35.23)"/><path class="cls-1" d="M969.51,50.31h-66a7.65,7.65,0,0,0-7.49,7.8v98.1a7.65,7.65,0,0,0,7.49,7.8h66a7.65,7.65,0,0,0,7.49-7.8V58.11A7.65,7.65,0,0,0,969.51,50.31Zm-6.7,52.44a4.16,4.16,0,0,0,4.07-4.24V63.83a4.16,4.16,0,0,0-4.07-4.24h-1.44Z" transform="translate(-121.27 -35.23)"/><rect class="cls-2" x="779.8" y="20.78" width="70.87" height="48.29" rx="4.75"/><rect class="cls-3" x="779.92" y="87.14" width="26.48" height="6.39" rx="2.5"/><rect class="cls-3" x="901.2" y="122.37" width="26.48" height="6.39" rx="2.5" transform="translate(667.6 1004.77) rotate(-90)"/><rect class="cls-2" x="824.06" y="87.14" width="26.48" height="6.39" rx="2.5"/><rect class="cls-2" x="954.79" y="113.95" width="7.55" height="6.39" rx="2.5" transform="translate(720.15 1040.48) rotate(-90)"/><rect class="cls-2" x="954.79" y="130.56" width="7.55" height="6.39" rx="2.5" transform="translate(703.54 1057.09) rotate(-90)"/><rect class="cls-4" x="824.06" y="115.69" width="26.48" height="6.39" rx="2.5"/><path class="cls-3" d="M971.94,60.76v38.8a4.75,4.75,0,0,1-4.75,4.74H904.25a3.27,3.27,0,0,1-2.57-1.6,5.64,5.64,0,0,1-.61-5.29,5.81,5.81,0,0,1,2.35-2.87l60.82-37.93a5.09,5.09,0,0,1,1.28-.59h1.67A4.75,4.75,0,0,1,971.94,60.76Z" transform="translate(-121.27 -35.23)"/><text class="cls-5" transform="translate(784.37 56.31)">Dja_</text></svg>